<svg width="24" height="24" xmlns="http://www.w3.org/2000/svg" fill-rule="evenodd" clip-rule="evenodd" fill="#3cb2f5"><path d="M5.25 17.322 3 16.101l2.234-3.067L3 11.074l4.713-2.562c.204.231.41.504.604.807l-3.584 1.948 1.181 1.037 3.058-1.686c.119.314.216.641.282.977l-3.261 1.801 6.018 3.109L18 13.4l-3.152-1.745c.061-.347.144-.667.248-.968l2.933 1.615 1.234-1.095-3.5-1.855c.183-.275.388-.54.614-.803L21 10.998l-2.261 2.008.011.006L21 16.093l-2.25 1.224v3.087L12 24l-6.75-3.596v-3.082zm7.246-.094v5.377l5.255-2.799V17.86l-3.501 1.905-1.754-2.537zm-6.247.636v1.942l5.248 2.796v-5.373L9.75 19.765l-3.501-1.901zm-1.772-2.096 4.96 2.692 1.099-1.594-4.983-2.575-1.076 1.477zm8.988 1.107 1.096 1.585 4.961-2.698-1.073-1.471-4.984 2.584zm-1.192-2.915h-.521a.541.541 0 0 1-.358-.127l-.692-.455h2.621l-.692.455a.537.537 0 0 1-.358.127zm1.075-1.164h-2.655a.29.29 0 1 1 0-.581h2.655a.29.29 0 1 1 0 .581zm.287-1.163H10.39c0-2.297-1.872-3.291-1.872-5.367 0-2.166 1.746-3.358 3.493-3.358 1.748 0 3.497 1.194 3.497 3.358 0 2.076-1.872 3.038-1.873 5.367zm-.901-.997c.188-.954.624-1.689 1.018-2.356.424-.714.757-1.279.757-2.014 0-1.55-1.257-2.361-2.498-2.361-1.239 0-2.495.811-2.495 2.361 0 .739.337 1.312.763 2.035.392.664.822 1.396 1.012 2.335h1.443zM7.377 6.315H5.605v-.997h1.818a3.848 3.848 0 0 0-.059.674l.013.323zm11.043 0h-1.761l.014-.323c0-.229-.02-.455-.06-.674h1.807v.997zM8.437 3.304a4.159 4.159 0 0 0-.584.809L6.414 3.092l.578-.813 1.445 1.025zm7.159-.005 1.437-1.02.578.813-1.43 1.015a4.23 4.23 0 0 0-.585-.808zm-5.3-1.22a4.905 4.905 0 0 0-.899.433L8.625.937l.897-.438.774 1.58zm3.435-.004.773-1.576.896.438-.769 1.57a4.816 4.816 0 0 0-.9-.432zm-1.219-.271a5.029 5.029 0 0 0-.999.001V0h.999v1.804z"/></svg>