<svg width="24" height="24" xmlns="http://www.w3.org/2000/svg" fill-rule="evenodd" clip-rule="evenodd" fill="#3cb2f5"><path d="M20.628 23h-6.59l-.352-1-13.682-.014c-.005-.005-.002-2.925-.004-3.165-.006-1.898-.012-3.538 2.784-4.182l.474-.108c1.504-.34 3.374-.762 3.724-1.533.041-.092.168-.371-.152-.961C4.904 8.489 4.537 5.372 5.795 3.26 6.651 1.824 8.215 1 10.084 1c1.854 0 3.407.812 4.26 2.226 1.258 2.086.901 5.214-1.004 8.807-.314.594-.186.873-.144.966.151.329.571.591 1.125.812l1.96-3.548a.55.55 0 0 1 .938.574l-1.753 3.173h4.03l-1.752-3.173a.55.55 0 0 1 .938-.574l2.069 3.747H24v2.983h-.828a.212.212 0 0 0-.192.119L20.628 23zm2.371-7.99H12v.996c.396.056.716.302.895.67l1.855 5.325h5.199l2.117-5.291a1.24 1.24 0 0 1 .933-.703v-.997zm-10.273-1a1.919 1.919 0 0 1-.439-.595c-.25-.544-.193-1.166.168-1.849 1.734-3.272 2.101-6.05 1.032-7.824C12.81 2.618 11.602 2 10.084 2c-1.53 0-2.748.629-3.429 1.772-1.071 1.797-.697 4.563 1.054 7.789.371.681.432 1.303.184 1.849-.555 1.223-2.517 1.667-4.414 2.096l-.471.107c-1.94.447-2.014 1.256-2.007 3.204L.999 21h12.347l-1.35-3.942c-.013-.019-.086-.065-.168-.065h-.829V14.01h1.727zm3.273 3.029a.5.5 0 0 0-1 0v3a.5.5 0 0 0 1 0v-3zm2-.074a.5.5 0 0 0-1 0v3a.5.5 0 0 0 1 0v-3zm1.997 0a.5.5 0 0 0-1 0v3a.5.5 0 0 0 1 0v-3z"/></svg>