<svg width="24" height="24" xmlns="http://www.w3.org/2000/svg" fill-rule="evenodd" clip-rule="evenodd" fill="#3cb2f5"><path d="M21 8.5a.5.5 0 0 0-.5-.5H17v4.014c1.463.049 2.813.247 4 .974V8.5zM16 8h-5v4h5V8zm-6 0H5v4h5V8zm12 .5v6.829C20.525 13.189 18.615 13 16 13H4V7h16.5A1.5 1.5 0 0 1 22 8.5zm1-.5c0-1.103-.897-2-2-2h-5V5H7v1H2c-.263 0-.521.107-.707.293A1.008 1.008 0 0 0 1 7v10.181l2.042.408A2.992 2.992 0 0 1 6 15c1.656 0 3 1.345 3 3h5c0-1.655 1.345-3 3-3s3 1.345 3 3h3V8zm-4 10c0-1.103-.897-2-2-2s-2 .897-2 2 .897 2 2 2 2-.897 2-2zM8 18c0-1.103-.897-2-2-2s-2 .897-2 2 .897 2 2 2 2-.897 2-2zM24 8v10a1 1 0 0 1-1 1h-3.184c-.414 1.162-1.513 2-2.816 2s-2.402-.838-2.816-2H8.816A2.994 2.994 0 0 1 6 21a3.004 3.004 0 0 1-2.937-2.387l-2.259-.452a1 1 0 0 1-.804-.98V7a2 2 0 0 1 2-2h4a1 1 0 0 1 1-1h9a1 1 0 0 1 1 1h4a3 3 0 0 1 3 3zm-8 10a1 1 0 1 0 2 0 1 1 0 0 0-2 0zM6 17a1 1 0 1 1 0 2 1 1 0 0 1 0-2z"/></svg>